<svg xmlns="http://www.w3.org/2000/svg" viewBox="0 0 460 270" role="img" aria-labelledby="title">
  <title id="title">Exposys Data Labs</title>
  <rect width="460" height="270" fill="#1d1d1d"/>
  <g transform="translate(36 58)" fill="none" stroke="#fff" stroke-width="3">
    <path d="M35 12 77 0l43 24 5 48-31 43-51-7L9 79 15 36z"/>
    <path d="M57 37 90 52 93 88 60 103 31 83 32 50z" stroke="#adb1bb"/>
    <path d="m76 0 13 52M43 108 31 83M120 24 90 52M94 115 93 88" stroke="#adb1bb"/>
    <circle cx="35" cy="12" r="5" fill="#f3df28" stroke="none"/><circle cx="77" cy="0" r="5" fill="#fff" stroke="none"/><circle cx="120" cy="24" r="5" fill="#f3df28" stroke="none"/><circle cx="125" cy="72" r="5" fill="#fff" stroke="none"/><circle cx="94" cy="115" r="5" fill="#f3df28" stroke="none"/><circle cx="43" cy="108" r="5" fill="#fff" stroke="none"/><circle cx="9" cy="79" r="5" fill="#adb1bb" stroke="none"/><circle cx="15" cy="36" r="5" fill="#f3df28" stroke="none"/><circle cx="61" cy="70" r="15" fill="#8e91a6" stroke="none"/>
  </g>
  <g fill="none" stroke="#fff" stroke-width="3" transform="translate(131 74)">
    <path d="M0 25 49 0v22L13 39l36 18v22L0 54z"/><path d="M0 90 49 65v22L13 104l36 18v22L0 119z"/>
  </g>
  <g fill="#fff" font-family="Arial, Helvetica, sans-serif" font-weight="700">
    <rect x="206" y="94" width="146" height="33" fill="none" stroke="#fff" stroke-width="2"/><text x="217" y="117" font-size="17">EXPOSYS</text>
    <rect x="206" y="137" width="206" height="34" fill="none" stroke="#fff" stroke-width="2"/><text x="216" y="161" font-size="17">DATA LABS</text>
  </g>
</svg>
