<svg xmlns="http://www.w3.org/2000/svg" viewBox="0 0 800 450" role="img" aria-labelledby="title">
<title id="title">YouTube learning recommendation system</title><rect width="800" height="450" fill="#f8f8f8"/>
<g font-family="Arial, sans-serif" font-weight="700"><rect x="245" y="28" width="70" height="48" rx="12" fill="#f22"/><path d="m274 40 22 12-22 12z" fill="#fff"/><text x="326" y="66" font-size="46" fill="#242424">YouTube</text></g>
<rect x="106" y="116" width="304" height="202" fill="#303030"/><circle cx="258" cy="217" r="35" fill="#f22"/><path d="m247 197 31 20-31 20z" fill="#fff"/><rect x="106" y="322" width="304" height="10" fill="#e52626"/><g fill="#fff"><path d="m119 337 10 6-10 6z"/><rect x="142" y="338" width="18" height="9"/><path d="m178 337 10 6-10 6z"/><circle cx="368" cy="342" r="6"/></g>
<g fill="#dbe3e8"><circle cx="132" cy="371" r="20"/><rect x="164" y="357" width="173" height="12" rx="6"/><rect x="164" y="380" width="128" height="9" rx="5"/><path d="M365 361h13l8 15-15 10-15-10z"/></g>
<g><rect x="466" y="116" width="223" height="75" fill="#dbe3e8"/><rect x="466" y="204" width="223" height="75" fill="#dbe3e8"/><rect x="466" y="292" width="223" height="75" fill="#dbe3e8"/><g fill="#303030"><rect x="466" y="116" width="76" height="75"/><rect x="466" y="204" width="76" height="75"/><rect x="466" y="292" width="76" height="75"/></g><g fill="#f22"><circle cx="504" cy="153" r="23"/><circle cx="504" cy="241" r="23"/><circle cx="504" cy="329" r="23"/></g><g fill="#fff"><path d="m496 141 18 12-18 12z"/><path d="m496 229 18 12-18 12z"/><path d="m496 317 18 12-18 12z"/></g><g fill="#fff"><rect x="563" y="135" width="93" height="10" rx="5"/><rect x="563" y="157" width="70" height="8" rx="4"/><rect x="563" y="223" width="93" height="10" rx="5"/><rect x="563" y="245" width="70" height="8" rx="4"/><rect x="563" y="311" width="93" height="10" rx="5"/><rect x="563" y="333" width="70" height="8" rx="4"/></g></g>
</svg>
