<svg xmlns="http://www.w3.org/2000/svg" viewBox="0 0 800 450" role="img" aria-labelledby="title">
<title id="title">Uber ride booking analytics</title><rect width="800" height="450" fill="#fff"/><path d="M0 0h500L350 450H0z" fill="#f2f2f2"/><text x="480" y="130" fill="#050505" font-family="Arial, sans-serif" font-size="112" font-weight="700">Uber</text><text x="482" y="174" fill="#252020" font-family="Georgia, serif" font-size="19" font-weight="700">Move anywhere, anytime. Experience fast, safe, and</text><text x="482" y="199" fill="#252020" font-family="Georgia, serif" font-size="19" font-weight="700">convenient rides with just a few clicks.</text>
<g transform="translate(60 203)"><path d="M30 90q28-75 88-75h178q55 0 93 60l28 45H17z" fill="#fff" stroke="#252525" stroke-width="5"/><path d="M118 22h164l43 56H75z" fill="#303030"/><ellipse cx="106" cy="134" rx="37" ry="37" fill="#111"/><ellipse cx="106" cy="134" rx="19" ry="19" fill="#eee"/><ellipse cx="328" cy="134" rx="37" ry="37" fill="#111"/><ellipse cx="328" cy="134" rx="19" ry="19" fill="#eee"/><rect x="44" y="83" width="35" height="11" rx="5" fill="#eef5ff"/><rect x="341" y="83" width="35" height="11" rx="5" fill="#eef5ff"/></g><g transform="translate(42 162)"><circle cx="30" cy="25" r="17" fill="#6b4435"/><path d="M10 44q20-20 40 0v64H10z" fill="#1b1b1b"/><rect x="5" y="106" width="50" height="76" rx="5" fill="#242424"/><path d="M-1 182h62" stroke="#151515" stroke-width="5"/></g><g><rect x="494" y="312" width="160" height="55" rx="28" fill="#252020"/><text x="556" y="346" fill="#fff" font-family="Arial" font-size="14">Home</text><rect x="676" y="312" width="150" height="55" rx="28" fill="#fff" stroke="#252020"/><text x="727" y="346" fill="#252020" font-family="Arial" font-size="14">Overview</text></g>
</svg>
