<svg xmlns="http://www.w3.org/2000/svg" viewBox="0 0 800 450" role="img" aria-labelledby="title">
<title id="title">Coffee shop sales analytics</title><defs><linearGradient id="g" x2="1" y2="1"><stop stop-color="#9aa0a2"/><stop offset="1" stop-color="#d9d9d7"/></linearGradient><radialGradient id="c"><stop stop-color="#b57947"/><stop offset=".6" stop-color="#6f3d25"/><stop offset="1" stop-color="#27170f"/></radialGradient></defs><rect width="800" height="450" fill="url(#g)"/><g stroke="#d5d0c6" stroke-width="14"><circle cx="105" cy="205" r="91" fill="#edece9"/><circle cx="289" cy="205" r="91" fill="#edece9"/><circle cx="473" cy="205" r="91" fill="#edece9"/><circle cx="657" cy="205" r="91" fill="#edece9"/></g><g fill="url(#c)"><circle cx="105" cy="205" r="76"/><circle cx="289" cy="205" r="76"/><circle cx="473" cy="205" r="76"/><circle cx="657" cy="205" r="76"/></g><g fill="none" stroke="#f4e7d7" stroke-width="10" stroke-linecap="round"><path d="M289 160q-58 45 0 88q58-43 0-88z"/><path d="M473 153q-58 52 0 103q58-51 0-103z"/><path d="M657 167q-35 37 0 76q35-39 0-76z"/></g><g fill="#fff" opacity=".7"><path d="M90 193q15-17 30 0t-15 34q-30-17-15-34z"/><path d="M458 200q15-18 30 0t-15 35q-30-17-15-35z"/></g><text x="214" y="390" fill="#39312c" font-family="Arial" font-size="30" font-weight="700">Coffee Shop Sales Analytics</text>
</svg>
